<svg width="40" height="40" viewBox="0 0 40 40" fill="none" xmlns="http://www.w3.org/2000/svg">
<path opacity="0.12" d="M20 20L35 11.6667V26.7643C35 27.3354 35 27.6209 34.9159 27.8755C34.8414 28.1008 34.7197 28.3076 34.5589 28.4821C34.3772 28.6794 34.1276 28.818 33.6284 29.0954L21.2951 35.9472C20.8224 36.2098 20.586 36.3411 20.3358 36.3926C20.1142 36.4381 19.8858 36.4381 19.6643 36.3926C19.414 36.3411 19.1776 36.2098 18.705 35.9472L6.37162 29.0954C5.87241 28.818 5.62281 28.6794 5.44106 28.4821C5.28026 28.3076 5.15858 28.1008 5.08414 27.8755C5 27.6209 5 27.3353 5 26.7643V11.6667L20 20Z" fill="#D85A30"/>
<path d="M20 4.16683V20.0002M20 20.0002L34.1667 12.1297M20 20.0002L5.83333 12.1297M20 20.0002V35.8335M34.1667 27.8705L21.2951 20.7196C20.8224 20.457 20.586 20.3257 20.3358 20.2743C20.1142 20.2287 19.8858 20.2287 19.6643 20.2743C19.414 20.3257 19.1776 20.457 18.705 20.7196L5.83333 27.8705M35 26.7644V13.2359C35 12.6648 35 12.3793 34.9159 12.1246C34.8414 11.8993 34.7197 11.6925 34.5589 11.5181C34.3772 11.3208 34.1276 11.1822 33.6284 10.9048L21.2951 4.05296C20.8224 3.79037 20.586 3.65907 20.3358 3.60759C20.1142 3.56204 19.8858 3.56204 19.6643 3.60759C19.414 3.65907 19.1776 3.79037 18.705 4.05297L6.37162 10.9048C5.87241 11.1822 5.62281 11.3208 5.44106 11.5181C5.28026 11.6925 5.15858 11.8993 5.08414 12.1246C5 12.3793 5 12.6648 5 13.2359V26.7644C5 27.3355 5 27.621 5.08414 27.8757C5.15858 28.101 5.28026 28.3078 5.44106 28.4823C5.62281 28.6795 5.87241 28.8182 6.37162 29.0955L18.705 35.9474C19.1776 36.21 19.414 36.3412 19.6643 36.3927C19.8858 36.4383 20.1142 36.4383 20.3358 36.3927C20.586 36.3412 20.8224 36.21 21.2951 35.9474L33.6284 29.0955C34.1276 28.8182 34.3772 28.6795 34.5589 28.4823C34.7197 28.3078 34.8414 28.101 34.9159 27.8757C35 27.621 35 27.3355 35 26.7644Z" stroke="#D85A30" stroke-width="3.33333" stroke-linecap="round" stroke-linejoin="round"/>
</svg>
